<svg width="16" height="16" viewBox="0 0 16 16" fill="none" xmlns="http://www.w3.org/2000/svg">
<g id="icon 16 / calendar">
<g id="Vector">
<path fill-rule="evenodd" clip-rule="evenodd" d="M2 3.38462C2 2.61991 2.61991 2 3.38462 2H12.6154C13.3801 2 14 2.61991 14 3.38462V12.6154C14 13.3801 13.3801 14 12.6154 14H3.38462C2.61991 14 2 13.3801 2 12.6154V3.38462ZM3.38462 2.92308C3.12971 2.92308 2.92308 3.12971 2.92308 3.38462V12.6154C2.92308 12.8703 3.12971 13.0769 3.38462 13.0769H12.6154C12.8703 13.0769 13.0769 12.8703 13.0769 12.6154V3.38462C13.0769 3.12971 12.8703 2.92308 12.6154 2.92308H3.38462Z" fill="#5D5B66"/>
<path d="M4 1H6V4H4V1Z" fill="#5D5B66"/>
<path d="M2 3C2 2.44772 2.44772 2 3 2H13C13.5523 2 14 2.44772 14 3V5H2V3Z" fill="#5D5B66"/>
<path d="M4 7H6V8H4V7Z" fill="#5D5B66"/>
<path d="M4 10H6V11H4V10Z" fill="#5D5B66"/>
<path d="M7 7H9V8H7V7Z" fill="#5D5B66"/>
<path d="M7 10H9V11H7V10Z" fill="#5D5B66"/>
<path d="M10 7H12V8H10V7Z" fill="#5D5B66"/>
<path d="M10 10H12V11H10V10Z" fill="#5D5B66"/>
<path d="M10 1H12V4H10V1Z" fill="#5D5B66"/>
</g>
</g>
</svg>
