<svg width="16" height="16" viewBox="0 0 16 16" fill="none" xmlns="http://www.w3.org/2000/svg">
<g id="Frame 9601">
<path id="Vector" fill-rule="evenodd" clip-rule="evenodd" d="M2.35055 3.5H0.60015C0.10003 3.5 0 3.7354 0 3.9949C0 4.45845 0.59343 6.7574 2.7631 9.79795C4.20955 11.8744 6.24745 13 8.1019 13C9.21455 13 9.3522 12.75 9.3522 12.3194V10.75C9.3522 10.25 9.4576 10.1502 9.8099 10.1502C10.0695 10.1502 10.5146 10.28 11.5531 11.2811C12.7399 12.4677 12.9356 13 13.6031 13H15.3535C15.8537 13 16.1037 12.75 15.9595 12.2567C15.8016 11.765 15.235 11.0515 14.4831 10.2058C14.0751 9.7238 13.4631 9.2047 13.2777 8.9451C13.0181 8.6114 13.0922 8.46305 13.2777 8.16645C13.2777 8.16645 15.4103 5.16295 15.6328 4.1433C15.7441 3.77245 15.6328 3.5 15.1035 3.5H13.3531C12.908 3.5 12.7028 3.7354 12.5915 3.9949C12.5915 3.9949 11.7014 6.1641 10.4404 7.57315C10.0324 7.981 9.847 8.1108 9.62445 8.1108C9.5132 8.1108 9.35215 7.981 9.35215 7.61025V4.1433C9.35215 3.6983 9.223 3.5 8.85205 3.5H6.1014C5.8233 3.5 5.656 3.7065 5.656 3.90225C5.656 4.32405 6.2865 4.42135 6.3515 5.6079V8.185C6.3515 8.75 6.2494 8.85245 6.0269 8.85245C5.4335 8.85245 3.99005 6.67355 3.13395 4.18035C2.9662 3.69575 2.7979 3.5 2.35055 3.5Z" fill="#2787F5"/>
</g>
</svg>
