<svg width="16" height="16" viewBox="0 0 16 16" fill="none" xmlns="http://www.w3.org/2000/svg">
<g id="Frame 9600">
<path id="Path-3" fill-rule="evenodd" clip-rule="evenodd" d="M0.960216 7.87397C4.70967 6.35591 7.2099 5.35512 8.46089 4.87158C12.0327 3.49099 12.7749 3.25117 13.2587 3.24325C13.3651 3.24151 13.603 3.26601 13.7571 3.38221C13.8872 3.48032 13.923 3.61286 13.9401 3.70589C13.9573 3.79891 13.9786 4.01083 13.9616 4.17641C13.7681 6.06633 12.9305 10.6527 12.5045 12.7694C12.3242 13.6651 11.9692 13.9654 11.6255 13.9948C10.8786 14.0587 10.3114 13.5361 9.588 13.0954C8.456 12.4059 7.81649 11.9766 6.71769 11.3037C5.44783 10.5261 6.27103 10.0987 6.99471 9.40018C7.18411 9.21738 10.475 6.43575 10.5387 6.18341C10.5466 6.15185 10.554 6.03421 10.4788 5.9721C10.4036 5.90998 10.2926 5.93122 10.2125 5.94812C10.099 5.97206 8.29062 7.08281 4.78738 9.28036C4.27408 9.60791 3.80915 9.7675 3.39258 9.75914C2.93335 9.74992 2.04997 9.51785 1.39328 9.31947C0.587809 9.07616 -0.0523605 8.94753 0.00338384 8.53431C0.032419 8.31908 0.351363 8.09897 0.960216 7.87397Z" fill="#2AABEE"/>
</g>
</svg>
