<svg width="96" height="47" viewBox="0 0 96 47" fill="none" xmlns="http://www.w3.org/2000/svg">
<g id="&#208;&#161;&#208;&#187;&#208;&#190;&#208;&#185; 2">
<g id="brand book">
<g id="logo">
<path id="Vector" d="M3.90048 12.8047C4.06579 12.5791 4.26466 12.3813 4.48992 12.2182C4.77987 12.0018 5.09019 11.8151 5.41632 11.6611C5.79943 11.4799 6.19869 11.3366 6.60864 11.2329C7.07208 11.1158 7.54811 11.0583 8.0256 11.0619C8.80834 11.0506 9.58562 11.1961 10.3133 11.49C10.974 11.7607 11.5715 12.1696 12.0672 12.6903C12.5668 13.2274 12.9492 13.866 13.1894 14.5641C13.4578 15.3394 13.5907 16.1565 13.5821 16.9784V25.9788H9.70944V17.6597C9.70944 16.7839 9.48032 16.0743 9.02208 15.5308C8.56384 14.9873 7.9136 14.7159 7.07136 14.7166C6.11712 14.7166 5.34912 15.0023 4.76736 15.5738C4.1856 16.1453 3.89568 16.9455 3.8976 17.9744V25.9739H0V6.40234H3.90048V12.8047Z" fill="#7953C3"/>
<path id="Vector_2" d="M22.618 11.0306C23.671 11.0209 24.7153 11.2249 25.69 11.6308C26.6028 12.0096 27.4363 12.5623 28.1457 13.2592C28.8414 13.9505 29.3946 14.7763 29.7729 15.6882C30.169 16.6365 30.3696 17.6575 30.3623 18.688C30.3694 19.6938 30.1768 20.6907 29.7958 21.6188C29.4149 22.5468 28.8536 23.3869 28.1457 24.0884C27.4365 24.7856 26.603 25.3384 25.69 25.7169C24.7154 26.1232 23.671 26.3272 22.618 26.317C21.5663 26.3267 20.5228 26.1275 19.546 25.7306C18.6311 25.3613 17.7962 24.8131 17.0884 24.1168C16.3935 23.428 15.8443 22.6017 15.4746 21.6888C15.0872 20.7379 14.8913 19.7174 14.8986 18.688C14.8933 17.6796 15.0854 16.6801 15.4635 15.7481C15.8416 14.816 16.3982 13.9699 17.1009 13.2592C17.8046 12.5605 18.6351 12.0078 19.546 11.6317C20.5206 11.2254 21.5649 11.021 22.618 11.0306ZM22.618 14.6306C22.0938 14.6273 21.5742 14.7293 21.0887 14.9307C20.6245 15.1222 20.2042 15.4094 19.8542 15.7742C19.5028 16.1443 19.2262 16.581 19.0401 17.0596C18.8398 17.578 18.7397 18.1309 18.7454 18.688C18.7393 19.2442 18.8347 19.7967 19.0266 20.3174C19.2021 20.7944 19.469 21.231 19.8119 21.6018C20.1629 21.9764 20.5855 22.2738 21.0538 22.4755C21.5221 22.6773 22.026 22.7791 22.5345 22.7747C23.3137 22.7822 24.0774 22.5523 24.7274 22.1146C25.3774 21.6769 25.8841 21.0514 26.1825 20.3184C26.392 19.8019 26.4968 19.2477 26.4906 18.689C26.4968 18.1319 26.3967 17.5788 26.1959 17.0605C26.0101 16.582 25.7339 16.1453 25.3828 15.7752C25.0324 15.4108 24.6122 15.1237 24.1482 14.9316C23.6625 14.7299 23.1425 14.6276 22.618 14.6306Z" fill="#7953C3"/>
<path id="Vector_3" d="M35.4698 12.7733C35.6779 12.5646 35.8981 12.3687 36.1293 12.1869C36.4056 11.9724 36.7017 11.7858 37.0135 11.6297C37.3677 11.4522 37.7394 11.3132 38.1223 11.2153C38.5583 11.1067 39.0059 11.0542 39.4548 11.0589C40.2413 11.0521 41.0204 11.214 41.7415 11.5339C42.4748 11.8718 43.1095 12.3975 43.5837 13.0597C44.1487 12.4471 44.8252 11.9521 45.5757 11.6023C46.3437 11.2407 47.2512 11.0599 48.2983 11.0599C49.1024 11.0465 49.9018 11.1867 50.6551 11.4733C51.3197 11.7339 51.9205 12.1389 52.4157 12.66C52.9098 13.1869 53.2878 13.815 53.5245 14.5025C53.7853 15.2695 53.9133 16.0768 53.9028 16.8884V25.9788H50.034V17.5453C50.034 16.6877 49.8237 16.0019 49.4032 15.4877C48.9828 14.9736 48.3885 14.7165 47.6205 14.7165C46.7412 14.7165 46.0349 14.9974 45.5018 15.5591C44.9687 16.1208 44.7021 16.8969 44.7021 17.8874V25.9729H40.8621V17.5453C40.8621 16.6877 40.6516 16.0019 40.2304 15.4877C39.8093 14.9736 39.2154 14.7165 38.4487 14.7165C37.5687 14.7165 36.8624 14.9974 36.33 15.5591C35.7975 16.1208 35.5296 16.8969 35.5264 17.8874V25.9729H31.625V11.3111H35.4698V12.7733Z" fill="#7953C3"/>
<path id="Vector_4" d="M69.6231 22.8312C68.9309 23.8991 67.9913 24.7773 66.8871 25.3882C65.7735 26.0072 64.4122 26.3168 62.8032 26.3168C61.6435 26.3168 60.6007 26.1213 59.6746 25.7303C58.783 25.3634 57.972 24.8195 57.289 24.1302C56.6182 23.4438 56.0971 22.6212 55.7597 21.7159C55.3983 20.7485 55.2176 19.7208 55.2269 18.6858C55.2213 17.6688 55.4071 16.6601 55.7741 15.7143C56.1263 14.8013 56.6559 13.9702 57.3312 13.2707C58.0205 12.5662 58.8411 12.0089 59.7447 11.6315C60.7239 11.2228 61.7738 11.0187 62.832 11.0313C63.9725 11.0313 64.992 11.2219 65.8906 11.6031C66.7519 11.9593 67.5308 12.4947 68.1773 13.1749C68.811 13.8527 69.3028 14.6544 69.6231 15.5315C69.9665 16.478 70.1376 17.4803 70.128 18.4893C70.128 18.7747 70.1187 19.0699 70.1002 19.3749C70.081 19.6798 70.0714 19.8509 70.0714 19.889H59.0717C59.2771 20.8228 59.712 21.5657 60.3763 22.1176C61.0407 22.6696 61.8778 22.9459 62.8877 22.9465C63.7671 22.9465 64.52 22.7702 65.1466 22.4177C65.7649 22.0732 66.2979 21.5894 66.7047 21.0033L69.6231 22.8312ZM62.8071 14.2882C61.8899 14.2882 61.1277 14.5215 60.5203 14.9881C59.913 15.4546 59.4781 16.1063 59.2157 16.943H66.2026C65.9971 16.0476 65.5763 15.381 64.9402 14.9431C64.3104 14.5075 63.5645 14.2789 62.8032 14.2882H62.8071Z" fill="#7953C3"/>
<path id="Vector_5" d="M85.6143 22.8312C84.9221 23.8991 83.9825 24.7773 82.8783 25.3882C81.7653 26.0072 80.4044 26.3168 78.7954 26.3168C77.6357 26.3168 76.5928 26.1213 75.6668 25.7303C74.7752 25.3634 73.9642 24.8195 73.2812 24.1302C72.6104 23.4438 72.0893 22.6212 71.7519 21.7159C71.3905 20.7484 71.2098 19.7208 71.2191 18.6858C71.2135 17.6688 71.3993 16.6601 71.7663 15.7143C72.1181 14.8011 72.6478 13.9699 73.3234 13.2707C74.014 12.5654 74.8362 12.008 75.7417 11.6315C76.7206 11.2229 77.7702 11.0188 78.8281 11.0313C79.9692 11.0313 80.989 11.2219 81.8876 11.6031C82.7489 11.9593 83.5278 12.4947 84.1743 13.1749C84.808 13.8524 85.2996 14.6543 85.6191 15.5315C85.963 16.4779 86.1341 17.4803 86.1241 18.4893C86.1241 18.7747 86.1148 19.0699 86.0962 19.3749C86.078 19.6798 86.0684 19.8509 86.0684 19.889H75.0629C75.2684 20.8228 75.7036 21.5657 76.3685 22.1176C77.0335 22.6695 77.8706 22.9458 78.8799 22.9465C79.7593 22.9465 80.5122 22.7702 81.1388 22.4177C81.7569 22.0732 82.2895 21.5894 82.6959 21.0033L85.6143 22.8312ZM78.7983 14.2882C77.8818 14.2882 77.1196 14.5215 76.5116 14.988C75.9036 15.4546 75.4684 16.1063 75.206 16.943H82.1938C81.9884 16.0489 81.5657 15.3829 80.9257 14.945C80.2979 14.5101 79.5547 14.2809 78.7954 14.2882H78.7983Z" fill="#7953C3"/>
<path id="Vector_6" d="M96.0019 11.3169V14.8573H92.4662V20.7435C92.4662 21.4101 92.6204 21.8816 92.9289 22.1579C93.2374 22.4342 93.7193 22.5746 94.3747 22.5792H96.0067V25.9788H94.0934C92.1664 25.9788 90.7632 25.5552 89.8838 24.7081C89.0044 23.8609 88.5651 22.6085 88.5657 20.9507V14.8573H86.4883V11.3169H88.5657V7.54492H92.4662V11.3169H96.0019Z" fill="#7953C3"/>
<path id="Vector_7" d="M52.2543 8.89467C51.9673 8.89459 51.6853 8.8181 51.4363 8.67278L42.7503 3.6164L34.0949 8.65812C33.7149 8.87938 33.2641 8.93788 32.8418 8.82074C32.4194 8.70361 32.06 8.42044 31.8427 8.03353C31.6254 7.64662 31.568 7.18766 31.683 6.75761C31.7981 6.32757 32.0762 5.96168 32.4562 5.74042L41.9314 0.221699C42.1808 0.0761115 42.4633 -0.000488281 42.7507 -0.000488281C43.0382 -0.000488281 43.3207 0.0761115 43.5701 0.221699L53.0741 5.75899C53.3885 5.94363 53.6343 6.22864 53.7735 6.56988C53.9127 6.91113 53.9376 7.28959 53.8442 7.64667C53.7508 8.00375 53.5445 8.31954 53.257 8.54515C52.9696 8.77075 52.6172 8.8936 52.2543 8.89467Z" fill="#7953C3"/>
<path id="Vector_8" d="M10.0723 40.5234H3.5088V46.7H0V30.9131H3.5088V37.2509H10.0723V30.9131H13.5811V46.7H10.0723V40.5234Z" fill="#102D69"/>
<path id="Vector_9" d="M21.1175 46.9995C19.1405 46.9995 17.6279 46.5346 16.5796 45.6047C15.5312 44.6748 14.9552 43.396 14.8516 41.7682H18.3604C18.3741 42.0716 18.4351 42.3708 18.5408 42.6547C18.6474 42.941 18.8134 43.2004 19.0276 43.4152C19.2746 43.6562 19.5691 43.8411 19.8916 43.9577C20.3173 44.1075 20.7661 44.1777 21.2164 44.1649C22.106 44.1649 22.7735 44.0036 23.2189 43.6811C23.6644 43.3585 23.8884 42.9512 23.8909 42.4593C23.9009 42.1815 23.808 41.9101 23.6308 41.6988C23.4294 41.4791 23.1868 41.3026 22.9175 41.1798C22.5784 41.0215 22.2246 40.8981 21.8615 40.8113C21.4621 40.7116 21.0436 40.6154 20.6058 40.5229C19.9869 40.3704 19.353 40.1977 18.704 40.0049C18.075 39.8228 17.4788 39.5386 16.9386 39.1633C16.4046 38.7882 15.9599 38.2963 15.6368 37.7235C15.2976 37.1324 15.128 36.3681 15.128 35.4304C15.1213 34.7684 15.2521 34.1125 15.512 33.5058C15.7673 32.9156 16.155 32.3947 16.6439 31.9848C17.1852 31.5378 17.8038 31.1977 18.4679 30.982C19.2691 30.7234 20.1062 30.599 20.9466 30.6135C21.8027 30.5986 22.6553 30.727 23.4704 30.9937C24.1518 31.2184 24.7825 31.5785 25.3261 32.0533C25.8316 32.5072 26.2367 33.0652 26.5146 33.6905C26.8081 34.3568 26.9842 35.0705 27.0349 35.7989H23.4925C23.4746 35.2017 23.2502 34.6302 22.8589 34.1851C22.4666 33.74 21.7946 33.5175 20.8429 33.5175C20.1332 33.5175 19.5674 33.6556 19.1456 33.9319C18.9446 34.0559 18.7797 34.2324 18.6683 34.4431C18.5569 34.6539 18.5029 34.8911 18.512 35.1303C18.5013 35.4344 18.598 35.7323 18.7847 35.9699C18.9844 36.2076 19.231 36.3997 19.5085 36.5339C19.8463 36.7011 20.2002 36.8321 20.5645 36.9249C20.9639 37.0324 21.3824 37.1409 21.8202 37.2475C22.4538 37.3863 23.0989 37.5475 23.7556 37.7313C24.3884 37.9054 24.9942 38.1686 25.5556 38.5133C26.0936 38.8487 26.5465 39.3085 26.8775 39.8553C27.2173 40.4073 27.3869 41.1293 27.3863 42.0214C27.3937 42.7082 27.2549 43.3885 26.9792 44.0154C26.7013 44.63 26.2869 45.1704 25.7687 45.594C25.1836 46.0654 24.5148 46.4175 23.7988 46.631C22.9281 46.8897 22.0243 47.0139 21.1175 46.9995Z" fill="#102D69"/>
<path id="Vector_10" d="M28.7891 30.9131H40.1257V34.1387H32.2979V37.1121H39.5411V40.2458H32.2979V43.4714H40.1526V46.697H28.7891V30.9131Z" fill="#102D69"/>
</g>
</g>
</g>
</svg>
